/* XPM */
static char *b7d7712cba7d45319fc288e026d88fb5bdvCCzAhRNbkoj14[] = {
/* columns rows colors chars-per-pixel */
"64 64 246 2 ",
"   c #020101",
".  c #0C0B0C",
"X  c #090608",
"o  c #170C0A",
"O  c #1C120C",
"+  c #17180B",
"@  c #0D0D11",
"#  c #110E16",
"$  c #131314",
"%  c #15151B",
"&  c #19171C",
"*  c #1A1A1D",
"=  c #191715",
"-  c #0D120D",
";  c #23140C",
":  c #29180E",
">  c #271B16",
",  c #361E13",
"<  c #361C0E",
"1  c #1C2618",
"2  c #262818",
"3  c #342418",
"4  c #28341B",
"5  c #33361D",
"6  c #1C1D22",
"7  c #1B1825",
"8  c #231F25",
"9  c #1E2223",
"0  c #1F2229",
"q  c #222325",
"w  c #24242B",
"e  c #292A2D",
"r  c #292927",
"t  c #362A25",
"y  c #2D3A23",
"u  c #2D352B",
"i  c #2D3A2B",
"p  c #273324",
"a  c #323D25",
"s  c #323D2C",
"d  c #393629",
"f  c #2B2A34",
"g  c #282935",
"h  c #353D33",
"j  c #393738",
"k  c #2E3436",
"l  c #44362B",
"z  c #443936",
"x  c #4E2E2A",
"c  c #6A3D38",
"v  c #35422B",
"b  c #39452D",
"n  c #394529",
"m  c #3A4533",
"M  c #3E4A33",
"N  c #394437",
"B  c #474829",
"V  c #424D34",
"C  c #464738",
"Z  c #544A37",
"A  c #46523A",
"S  c #485739",
"D  c #565A38",
"F  c #52542D",
"G  c #684D39",
"H  c #57653B",
"J  c #67663A",
"K  c #746D3B",
"L  c #3A3B44",
"P  c #3B3E53",
"I  c #443B44",
"U  c #3E454A",
"Y  c #3E5466",
"T  c #484747",
"R  c #544A47",
"E  c #4C5C43",
"W  c #4B5549",
"Q  c #555948",
"!  c #484958",
"~  c #534D57",
"^  c #4A5358",
"/  c #545252",
"(  c #585A58",
")  c #6A5749",
"_  c #635A56",
"`  c #734F49",
"'  c #4E6548",
"]  c #53644B",
"[  c #576749",
"{  c #556C53",
"}  c #5B6D53",
"|  c #5C625C",
" . c #596757",
".. c #547254",
"X. c #5B7355",
"o. c #5C7559",
"O. c #5D7A5B",
"+. c #587858",
"@. c #526A53",
"#. c #676646",
"$. c #726C44",
"%. c #6A724B",
"&. c #787548",
"*. c #656859",
"=. c #766858",
"-. c #63745D",
";. c #617A5C",
":. c #687359",
">. c #797555",
",. c #4C5466",
"<. c #5A5C69",
"1. c #575B72",
"2. c #4B536D",
"3. c #635F6C",
"4. c #5A6467",
"5. c #5A6374",
"6. c #5C7568",
"7. c #676968",
"8. c #756B66",
"9. c #6A7666",
"0. c #76766A",
"q. c #676A78",
"w. c #6C7477",
"e. c #737473",
"r. c #73747B",
"t. c #787B78",
"y. c #875A56",
"u. c #825F4D",
"i. c #847A49",
"p. c #88655B",
"a. c #847A57",
"s. c #91605B",
"d. c #886D67",
"f. c #987973",
"g. c #8F746A",
"h. c #A77C74",
"j. c #7C8158",
"k. c #7B8274",
"l. c #7C837C",
"z. c #748475",
"x. c #72826E",
"c. c #888458",
"v. c #8E8452",
"b. c #82857D",
"n. c #858A7C",
"m. c #878878",
"M. c #91907B",
"N. c #918B70",
"B. c #A68578",
"V. c #6B7386",
"C. c #777B88",
"Z. c #697499",
"A. c #6C728D",
"S. c #6B79A6",
"D. c #5D6B86",
"F. c #7C8588",
"G. c #7A8796",
"H. c #7887A8",
"J. c #7B8BB3",
"K. c #898D83",
"L. c #848C8C",
"P. c #858987",
"I. c #8C9284",
"U. c #8C938B",
"Y. c #889587",
"T. c #949888",
"R. c #848A94",
"E. c #8C9393",
"W. c #8B9798",
"Q. c #949C94",
"!. c #9B9B9B",
"~. c #959898",
"^. c #948C87",
"/. c #B78A85",
"(. c #A8958B",
"). c #B8958A",
"_. c #AC918D",
"`. c #9BA28A",
"'. c #9DA393",
"]. c #9AA599",
"[. c #A1A395",
"{. c #A5AB96",
"}. c #A2A59B",
"|. c #A4AB9B",
" X c #A9AD99",
".X c #ABB49B",
"XX c #A9B599",
"oX c #B4BA9C",
"OX c #A8A78E",
"+X c #999CA3",
"@X c #8798BA",
"#X c #8996A9",
"$X c #9AA4A6",
"%X c #94A7B7",
"&X c #A9ACA1",
"*X c #A4A8A6",
"=X c #ABB4A4",
"-X c #ABB4AA",
";X c #ADBBAA",
":X c #A8B5A7",
">X c #B3BCAC",
",X c #B5BAA6",
"<X c #A7ABB2",
"1X c #ADB5B6",
"2X c #B3B9B4",
"3X c #C19A8C",
"4X c #CCB5AB",
"5X c #B6C3AD",
"6X c #B9C4AD",
"7X c #BAC5A6",
"8X c #B5C3B2",
"9X c #BBC6B4",
"0X c #BCCBB3",
"qX c #BCC9BA",
"wX c #B7C9B6",
"eX c #C0C4A8",
"rX c #C2CBB5",
"tX c #C6D3B9",
"yX c #D1DBB4",
"uX c #D6E0B9",
"iX c #8898C5",
"pX c #8DA4C7",
"aX c #93A7CA",
"sX c #95ACD5",
"dX c #9BB4DB",
"fX c #9AB7D9",
"gX c #90A8D0",
"hX c #A7BAD7",
"jX c #A8B9C4",
"kX c #9EB8E3",
"lX c #A1B9E0",
"zX c #B7C6D5",
"xX c #AFC8E5",
"cX c #C4CAC5",
"vX c #C8D6C4",
"bX c #CFD7D4",
"nX c #D9E7D6",
"mX c #D6E4CD",
"MX c #C4D5E6",
"NX c #F4F5F4",
"BX c #F6F8F7",
"VX c #F6FAFB",
"CX c #FFFFFF",
"ZX c #F7F7F9",
"AX c #EEEFED",
"SX c #EACEC5",
/* pixels */
"VXVXCXCXCXCXCXCXCXCXCXCXCXCXCXCXCXCXCXCXCXCXCXCXCXCXCXCXCXCXCXCXCXCXCXCXCXCXCXCXCXCXCXCXCXCXCXCXCXCXCXCXCXCXCXCXCXCXCXCXCXCXCXCX",
"CXVXMXzXMXzXMXMXMXxXzXzXMXjX*X<X1XzXcX<X<X$X<X1XzXzX2X<X$X~.~.~.$X$X+X<X$X1X*X*X<X~.1X<X<X<XE.E.~.L.~.~.P.!.+X<X1X1X1XE.P.1XCXCX",
"CXMX@XpXaXaXdXfXfXfXfXfXpXA.<.1.C.W.R.<.F.w.5.C.%X%XW.q.5.! ! P 5.! q.5.5.q.^ 1.4.^ q.C.C.! T I L ! ~ ! f I ! 5.C.V.C.U j T bXCX",
"CXhXgXgXgXdXdXdXfXhXxXxXH.,.q.5.G.+XF.w.#X$XG.G.%XjX%XC.D.1.! 5.V.5.G.5.G.4.q.F.L.W.U.K.0.T T R R ~ ~ q.I ~ 1.V.V.q.C.! ^ L ~.CX",
"ZXaXgXgXgXhXsXsXdXlXxXhXq.~ q.5.W.~.C.+XbX8X$XW.%XjX#XG.q.,.! V.1.5.w.w.F.F.L.P.l.Y.'.;XrXb.R R T T T T I q.P V.q.V.C.1.L L C.CX",
"VXsXpXgXsXkXdXdXkXkXxXpX1.q.q.D.#XL.U.cX-X].F.4.G.%XG.C.5.! ^ V.^ r.U.F.L.Y.`.:XqXmXnXnXvXU.0.8.*._ R T R ! ! V.1.<.V.! ! ! r.CX",
"VXhXgXgXsXdXdXdXdXfXhXH.1.1.1.V.L.t.P.T.U.=XcXt.F.W.F.F.6.( w.W.W.E.Y.:XcXmXnXnXnXbXbX8X'.m.8.0.0.t.0._ / ~ <.q.q.7.| T ~ L W.CX",
"VXhXsXsXdXdXfXdXpXaXpX1.1.5.1.R.q.F.:X9XvXqX>X:X;X:X2X<XQ.$X*X].$X].cXnXmXvXmXnX|.>X}.:X.XI.R _ 0.8.8.0.t.P._ 7.0.m.8.I I j t.CX",
"VXxXsXdXdXsXsXaXpX@XH.5.q.q.C.V.V.F.8X;X:X;X6XvXtX8XvXcX;X8X:X].].].>XtXqXl.P.U.5XrX*.,XvX{./ t.|.( 8.0.7.m.^.[.,XtX,X*.R z e.CX",
"VXhXdXdXsXaXpXaXpXH.G.q.C.V.C.q.C.F.;X0XtXtXtX`.I.I.x.k.m.k.T.Y.].&X&XT.T z R d 8XmXg.>XrX{.*.U.[.8.[.b.j z Z M.7XoX.Xt.8._ m.CX",
"VXhXsXsXgXpXpXpX%XV.A.C.q.C.F.r.L.$X9X6X0X8X|.5X'.'.,XXXm.T.'.tXvXn.=Xj j _ g.R *.nXk.;XrX X( Q.U.7.&Xm./ e.R m.|.`.{.*./ ( ^.CX",
"VXhXsXgXpXpXJ.Y G.R.C.R.L.P.F.q.$X*X|.,XT.:XY.vXk.7.vXoXZ >X;X;XrXT.8.T _ g._.d.r 2X9XqX6X[.l.*Xb.7.=Xk./ ~.*.,Xl.>XrX*.7.t.t.CX",
"VXhXgXaX@X@XD.U q.L.F.E.Q.-XcXQ.Q.'.[. X[.|.Q.5Xn.9.tXoXQ ,X.X{.5Xn.0.8.).4X)._.j t.cX8X;XI.n.n.T.n.{.b.T K.9.rXQ.8X>Xe.K.U.P.CX",
"VXaXiXiX@X@XZ.,.V.<XqXnXbXnXvX].].I.'.}.}.|.Y.5Xn.0.tX{.Q 7X{.`.0XY.(.).SX4X/.B.R *.tX0X5X'.k.k.k.0.b.K.T t.0.9Xk.;X;Xe.U.K.!.CX",
"VXaXiX@XJ.H.S.,.q.bXvXqX-X$X*X:X>X*X!.}.=X>XT..X6X,X7XoX[.7XrX5XtX|.(.4X4X).h.d.Z ( tX0X7XT.n.I.n.b.n.n.j 7.U.,X=X8X].b.!.l.*XCX",
"VX@XJ.J.H.H.Z.2.V.$X:X*XqX-XqX9X-X*X*XU.n.k. .Q .X6XXXXX XOX7X,X0X{.B.).3X3XB.p.R R =XtX6X`.U.!.U.n.T.K.j / b.=X6X8X`.b.P.l.*XCX",
"ZX#XS.H.S.S.Z.2.R.$X>X8X8X2X9X8X=Xt.e.b.n.'.k.0.7XrXrX0X,XoX7X7X0X`.f.).3X/.h.s.) z >XvX6X'.n.Q.Q.Q.[.K.z R *.T.oX0X:XK.t.e.~.CX",
"ZX#XZ.S.S.Z.Z.1.C.-X>X;X8X>XvX8XqX].&X[.T.0.t.>X7X.XyX7XM.7XXX7XtXM.f./.h.` G G =.z K.qX9X}.W *.}.9.k.U.T / 0.XX7X0X;XU.P.P.*XCX",
"ZXC.Z.Z.Z.Z.V.U 4.;X>X.X>X=X8X;XqXk.*.8.0.t.W.vXeX,XyXeX[.7XtXtXqXm.=.` c G c u.p.x m.rX0X|.( U. X( k.I.T / 8.eXyXtX2XQ.].U.-XCX",
"NX^ ,.5.,.^ ( k ( >X;X;X5X5XqX>XcX&XK.*X}.&XU.mX0.*.yXOXC  X{..XXXQ =.x y././.).` x _  XrX[.( U.I.| ].K.T / C {.`.>X>XP.t.E.-XCX",
"NXW h U N h C h  .9X9X6X6X6X9X;X;X:Xl.Y.l.b.Y.tX0.8.uXOXC oXN.M.,X0.f.` )././.B.` z _ =XrX}.( ~.n.7.:XK.L / t *.L.2X;Xt.7.E.F.CX",
"AXW m h j N C h ] 9X5X6X9XrX9X>X9XQ.9.W.F.b.Q.tX=.*.uX`.l XXM.`.7X=.(./.h.` ` y.` > j >XrX}.( !.Q.e.-XK.L / z T E.2X:Xk.E.U.E.CX",
"NXQ s h h s N N  .-X>X{.=XT.|.-Xk.&XF.Q.U.Q.U.6X=.8.yX`.l XXN.OXeX>.4Xh.y.x s.s.` ; > =X>XU.( !.}.t.-XK.j ~ I 7.E.1X-Xl.~.F.L.CX",
"NXW h i y m i u | ].|.T. XT.&X>Xk.-XE.~.~.Q.Y.tX=.=.yXT.l oXN.`.eX*.,Xp.s.` ` s.G o = W t.e./ U.K.e.Q.e.j ~ j e.E.<X$XC.L.L.E.CX",
"NXT s i h h u i ( ].|.`.=X'.=X=Xb.<XF.W.E.P.K.tX0.:.rX`.C  XM.T.oX0.m.=.y.y.f.y.3 o 6 $ w k T t.r.e.0.W k ~ j C.U.Q.U.w.E.W.+XCX",
"AXW p p p u N u | ].=X|.,XT.&X;Xb.$X$X~.L.E.l.I.=X=X;X=XT.`.,X{.=X&X,Xg.g.f.f.` ; $ * * q 6 q f q.K.I.P.e j u t.|.K.t.W t.w.~.CX",
"NXT 9 T N 9 e 1 ( ].].'.Q.T.n.Q.l.w.r.L.w.4.W ( | ].vX8X'.{.5X:X;X].2X8.` /.B., o 8 % % w w w 6 e j 9.k.N W h Q 0.*.A M M i 9.CX",
"NXk @ ^ 7.6 9 q U !.U.Q.b.Q.U.9.7.7.r.E.r.W W ( e.4.Y.Y.k.T.Y.Y.Y.Y.E.p t ` , o o r & @ w w w w w q q p s i y p 4 4 y a v 4 7.CX",
"ZX7.k 4.<Xq.<.7.<.q.<.t.t.E.W.Y.E.W.+X<XF.7.7.7.e.e.k.z.0.w.9.9.( | T q = O ; . 7 r w % w w g g w w 6 1 s i y p y y v v a 1 -.CX",
"CX~.<.F.<.7.C.C.C.<.T ( t.P.9.7.9.( 4.w.| W C N h T C C m u i i y s e 6 * @ . = g w w 6 w w g g w w 6 % p N i i n b b v a 4 *.CX",
"CXE.<.C.! ! <.V.q.7.7.T 7.m m C i s a y a s s s s s m v v v v v v y 9 6 q X X # w g * % w w w g e w 6 6 9 s i i v M b a 5 4 -.CX",
"ZXr.q.+Xq.j f / F.w.4.4.7.M s C s v b y y y m m m m m m b b v b n i 9 * = * # . w e % . r r w w w w 6 * % s v s b n n n n y -.CX",
"ZXe.e.b.7.T j R | r.F.E.r.Q v V b m b a s s s m m v m m M b M b m u * % 9 e 6 e w e # = d 3 q w q w 6 * % u s m n v V V b y 9.CX",
"NX*.C A A D D C r | W.q.7.W v C m v v v v s s s M m m m M v M m i e $ & g q w g e q $ d : : > 0 w w 6 6 * r s v V n n n n 4 -.CX",
"NX*.C Q *.Q W W j | $XC.q.] b V b M b b v s M m m m m m M M V m e w $ 8 g w g g w r l 3 : : = 9 9 9 6 6 7 8 h b D D B V M v 9.CX",
"ZXC.3.7.q.7.7.7.e.7.L.E.e.9.V V V M M b v v m m m m C M M M V h w w & 6 L L g g r l , < , ; O 6 6 6 6 6 6 * s V D V V V M v 9.CX",
"VXL.r.r.r.3.w.e.7.e.r.W.L.t.M A V M M V b b M b M m V V M b M h w 9 6 w f f w e t , < 3 < ; $ * 6 6 6 6 = $ u Q S M M V n 4 *.CX",
"NXC.r.r.R.r.e.| h 7.q.L.E.t.V A M M M A m b b v b b M M M b b u q 6 * g f g g z , , , , 3 ; O % 6 6 6 * $ . p S V S A M b 4 -.CX",
"NX7.7.+XP.q.t./ p W q.w.$XF.V A A M v b M M M v v M M M M m m u q * & g k g f l < , , < : ; O $ * 6 9 * $ $ = V S S A V b y -.CX",
"NXk ( +X7.t.t.C p h 7.7.t.Q.A V M b b b M M V v a M M M M m v i 9 * 7 g f k g l , 3 , : ; ; O $ * 6 9 * # % - V S V M n V 4 -.CX",
"AX/ r.7./ ( ( m y p ( _ ( -.E A V V V V A V M b M b V V M M M i 9 * 6 g f g 8 z 3 : , : O ; ; o % % 6 * $ * $ y S V M n b 4 -.CX",
"NXk.7.( ( | W s 2 1 *.R V M A A E S E S S E E S E E E E E E ] s 6 * 6 f f e 6 j t : : : O ; ; O $ % 6 % $ 6 * p S b b n v 4 9.CX",
"NX| E  . . .] m s N x.[ ] [ } } ] ] ' E E E E E E S E E E S S s 6 & w g f e q r 3 : : : ; ; ; O $ % 8 * * 6 6 w A b n n y n x.CX",
"NX0.{ } { { { } X.{ ' ] ' ' ' ' ' ' ] ] ] ' ' ] ] ' ' ] { ] } u * & w f g e q > t ; : ; ; O O O $ & & % 6 6 6 * M b 5 a 4 4 9.CX",
"VXz.X.-.+.O.O.o.o.O.O.O.o.o.+.X.......{ { ] ' ' ' ' S S S S S r 6 & w f g e q . d : : ; O O O O $ # . . @ $ $ * v M n 4 4 Q n.CX",
"VXx.{ o.................X.X.+.+.+.O.O.O.O.O.O.O.O.O.O.O.O.O.o.e 6 6 w f g f &   z : ; ; O O O O - X @ 6 = % . X s M a 5 2 S I.CX",
"VXx.{ o.o.o.X.....@.@.{ ....................+...X.o.+.o.O.O.{ 9 6 9 g g g e @ X z > O O O O O O $ . * 6 $ $ $   1 M v 4 2 y 9.CX",
"BXz...9.-.o.o.........X.o.o.o.o.O.O.+.+.+.+.+.+.+.O.O.+...O.W % 6 w g g f 6 . X j t O O O o o = = 6 6 q = . $ . - a 4 2 2 V k.CX",
"NXz.{ o.o.o.O.O.o.;.o.+.O.o.O.O.O.O.O.O.O.O.+.....X.....{ ..N $ 6 w w f w * . . t z X o = 8 * * * 8 6 6 * $ # $ $ 4 4 + 1 a b.CX",
"BXz.@.o.{ { o.o.O.;.;.;.;.o.o.o.o.O.O.O.O.O.+.X.......@.' @.i $ q 6 g g 6 q . o t z =.f.z q w 6 & 6 & 6 $ $ $ . = S V M E A m.CX",
"BXz.{ o.o.o.X.X...{ { { X.o.o.o.o.o.O.;.;.O.O.O.;.9.O.O.O.O.u $ 6 6 f w & w . $ z d.4X4X8.& 7 7 7 * % * $ % $   d %.[ } -.Q m.CX",
"BX0.{ X.} } X.X.X.X.X.} } X.o.o.o.;.O.o.o.;.;.O.O.O.O.O.9.o.r # 6 6 g % w q . = ) B.)./.d.> 7 % % % $ = $ $ . X a n n b V n x.CX",
"NX0.@.} } } } X.X.+.X.-.} X.o.o.o.;.;.o.o.;.o.X.+.o.o.o.9.] 9 $ * w 6 7 f w . > ) u.3Xf.p.> $ $ $ $ $ $ @ $   r Q S A M V n :.CX",
"BX0.@.} } [ [ ..{ { } } } } o.o.o.O.o.:.;.O.X.X.+.o.o.o.O.@.6 # 1 r . $ q w X *.).).g.p.G = $ $ $ $ - . X X 2 [ [ [ [ [ ' S m.CX",
"BX0.] } } >.j.[ :.X.} } X.-.:.-.-.+.o.%.:.o.:.O.X.O.O.o.+.E I 8 1 2 =.*.t w @ t B.` x R p.d $ $ $ $ . @ o X Z ] Q E F S S V k.CX",
"BX0.] } } a.i.&.D } ] [ { [ J H } [ #.j.} [ H H H H [ D [ E T %.$ Q #.5 _ > # X t x , x G   . . X X       X d S D n B B n 2 *.CX",
"NX0.] } [ K K %.&.#.>.[ ' >.a.c.#.>.&.$.[ [ c.J $.&.D c.%.E 5 #.% $.3 1 3 ) Z R =.B.: l N.Z R *.z Z 0.2 8.k >.F B >.B 5 5 d m.CX",
"NX9.' ] ' v.N.S K v.i.D [ >.&.&.$.J v.&.' %.K &.K K c.$.>.V #.r % K e 7 t c.a.a.G ) X 3 Z #.d l >.D Z >.l X ) &.a.a.$.T.T.M.,XCX",
"NX9.E ] ] v.D [ v.K K &.S &.$.K i.i.v.>.E %.J i.K J i.J &.N d $ % =.5 X z >.8 B i.Z   > Z B t >.=.Z z a.= u v.v.c.i.c.:.:.Q n.CX",
"NX9.] } [ >.Q $.c.J &.&.D $.#.J $.c.&.#.M [ D J >.>.#.J J + C * $ C c.#.t =.I ) $.d.* = R z z g.) Z z R =._ a.$.J &.>.[ *.Q K.CX",
"CXl.E [ [ E Q D D F D F D B F F B B B 5 v a 5 5 a 5 2 2 Z Z 2 % 6 = d l > d t t Z t = X $ o . r $ o $ . #.> C [ #.%.#.#.:.*.}.CX",
"CX2Xs a a b b a a d 2 5 2 2 2 + + + + + . . + + 2 2 > C B._.>   X $ . # 7 # X   t o                     C   2 [ E E E Q Q | bXCX",
"CXVXqX|.=X=X&X&X|.'.}.}.}.}.!.Q.!.[.!.}.!.}.&X2XrXcXcXbX4X4X&X~.!.+X+X$X+X+X$XQ.&X}.~.!.!.!.~.!.~.~.~.Q.[.E.*X2X2X2X2X2X>XbXCXCX",
"CXCXCXCXCXCXCXCXCXCXCXCXCXCXCXCXCXCXCXCXCXCXCXCXCXCXCXCXCXCXCXCXCXCXCXCXCXCXCXCXCXCXCXCXCXCXCXCXCXCXCXCXCXCXCXCXCXCXCXCXCXCXCXCX"
};
